<mxfile host="65bd71144e">
    <diagram id="0Ir4Utu6WyeZlDCEdca7" name="welcome-page">
        <mxGraphModel dx="1435" dy="1717" grid="1" gridSize="10" guides="1" tooltips="1" connect="1" arrows="1" fold="1" page="1" pageScale="1" pageWidth="827" pageHeight="1169" math="0" shadow="0">
            <root>
                <mxCell id="0"/>
                <mxCell id="1" parent="0"/>
                <mxCell id="17" value="" style="rounded=0;whiteSpace=wrap;html=1;fillColor=#FFFFFF;" parent="1" vertex="1">
                    <mxGeometry width="820" height="830" as="geometry"/>
                </mxCell>
                <mxCell id="18" value="&lt;font color=&quot;#000000&quot; style=&quot;font-size: 37px&quot;&gt;Hangman&lt;/font&gt;" style="text;html=1;strokeColor=none;fillColor=none;align=center;verticalAlign=middle;whiteSpace=wrap;rounded=0;" parent="1" vertex="1">
                    <mxGeometry x="228" y="50" width="370" height="130" as="geometry"/>
                </mxCell>
                <mxCell id="19" style="edgeStyle=none;html=1;exitX=0.75;exitY=1;exitDx=0;exitDy=0;" parent="1" source="20" target="17" edge="1">
                    <mxGeometry relative="1" as="geometry"/>
                </mxCell>
                <mxCell id="20" value="" style="rounded=1;whiteSpace=wrap;html=1;fillColor=#000000;" parent="1" vertex="1">
                    <mxGeometry x="70" y="370" width="120" height="60" as="geometry"/>
                </mxCell>
                <mxCell id="21" value="" style="rounded=1;whiteSpace=wrap;html=1;fillColor=#000000;" parent="1" vertex="1">
                    <mxGeometry x="260" y="370" width="120" height="60" as="geometry"/>
                </mxCell>
                <mxCell id="22" value="" style="rounded=1;whiteSpace=wrap;html=1;fillColor=#000000;" parent="1" vertex="1">
                    <mxGeometry x="450" y="370" width="120" height="60" as="geometry"/>
                </mxCell>
                <mxCell id="23" value="" style="rounded=1;whiteSpace=wrap;html=1;fillColor=#000000;" parent="1" vertex="1">
                    <mxGeometry x="108" y="550" width="120" height="60" as="geometry"/>
                </mxCell>
                <mxCell id="24" value="" style="rounded=1;whiteSpace=wrap;html=1;fillColor=#000000;" parent="1" vertex="1">
                    <mxGeometry x="340" y="550" width="120" height="60" as="geometry"/>
                </mxCell>
                <mxCell id="25" value="" style="rounded=1;whiteSpace=wrap;html=1;fillColor=#000000;" parent="1" vertex="1">
                    <mxGeometry x="570" y="550" width="120" height="60" as="geometry"/>
                </mxCell>
                <mxCell id="26" value="" style="rounded=1;whiteSpace=wrap;html=1;fillColor=#000000;" parent="1" vertex="1">
                    <mxGeometry x="640" y="370" width="120" height="60" as="geometry"/>
                </mxCell>
                <mxCell id="27" style="edgeStyle=none;html=1;exitX=0.25;exitY=1;exitDx=0;exitDy=0;" parent="1" source="28" target="17" edge="1">
                    <mxGeometry relative="1" as="geometry"/>
                </mxCell>
                <mxCell id="28" value="&lt;font color=&quot;#000000&quot; style=&quot;font-size: 37px&quot;&gt;Themes&lt;/font&gt;" style="text;html=1;strokeColor=none;fillColor=none;align=center;verticalAlign=middle;whiteSpace=wrap;rounded=0;" parent="1" vertex="1">
                    <mxGeometry x="230" y="160" width="370" height="130" as="geometry"/>
                </mxCell>
                <mxCell id="29" value="&lt;span style=&quot;font-size: 19px&quot;&gt;&lt;font color=&quot;#000000&quot;&gt;settings&lt;/font&gt;&lt;/span&gt;" style="text;html=1;strokeColor=none;fillColor=none;align=center;verticalAlign=middle;whiteSpace=wrap;rounded=0;" parent="1" vertex="1">
                    <mxGeometry x="640" y="20" width="180" height="20" as="geometry"/>
                </mxCell>
            </root>
        </mxGraphModel>
    </diagram>
    <diagram id="busaIKcY203lVlDjCA_5" name="playing-page">
        <mxGraphModel dx="938" dy="548" grid="1" gridSize="10" guides="1" tooltips="1" connect="1" arrows="1" fold="1" page="1" pageScale="1" pageWidth="827" pageHeight="1169" math="0" shadow="0">
            <root>
                <mxCell id="TDGXhuY3JXJe945Ci3HX-0"/>
                <mxCell id="TDGXhuY3JXJe945Ci3HX-1" parent="TDGXhuY3JXJe945Ci3HX-0"/>
                <mxCell id="TDGXhuY3JXJe945Ci3HX-2" value="" style="rounded=0;whiteSpace=wrap;html=1;fillColor=#FFFFFF;" parent="TDGXhuY3JXJe945Ci3HX-1" vertex="1">
                    <mxGeometry width="820" height="940" as="geometry"/>
                </mxCell>
                <mxCell id="TDGXhuY3JXJe945Ci3HX-3" value="&lt;font color=&quot;#000000&quot; style=&quot;font-size: 37px&quot;&gt;Hangman&lt;/font&gt;" style="text;html=1;strokeColor=none;fillColor=none;align=center;verticalAlign=middle;whiteSpace=wrap;rounded=0;" parent="TDGXhuY3JXJe945Ci3HX-1" vertex="1">
                    <mxGeometry x="228" y="50" width="370" height="130" as="geometry"/>
                </mxCell>
                <mxCell id="TDGXhuY3JXJe945Ci3HX-5" value="" style="rounded=1;whiteSpace=wrap;html=1;fillColor=#000000;" parent="TDGXhuY3JXJe945Ci3HX-1" vertex="1">
                    <mxGeometry x="40" y="450" width="290" height="50" as="geometry"/>
                </mxCell>
                <mxCell id="TDGXhuY3JXJe945Ci3HX-13" value="&lt;font color=&quot;#000000&quot; style=&quot;font-size: 67px&quot;&gt;&amp;nbsp;_ _ _ _ _&lt;/font&gt;" style="text;html=1;strokeColor=none;fillColor=none;align=center;verticalAlign=middle;whiteSpace=wrap;rounded=0;" parent="TDGXhuY3JXJe945Ci3HX-1" vertex="1">
                    <mxGeometry x="229" y="250" width="370" height="130" as="geometry"/>
                </mxCell>
                <mxCell id="TDGXhuY3JXJe945Ci3HX-14" value="&lt;span style=&quot;font-size: 19px&quot;&gt;&lt;font color=&quot;#000000&quot;&gt;settings&lt;/font&gt;&lt;/span&gt;" style="text;html=1;strokeColor=none;fillColor=none;align=center;verticalAlign=middle;whiteSpace=wrap;rounded=0;" parent="TDGXhuY3JXJe945Ci3HX-1" vertex="1">
                    <mxGeometry x="640" y="20" width="180" height="20" as="geometry"/>
                </mxCell>
                <mxCell id="TDGXhuY3JXJe945Ci3HX-17" value="" style="whiteSpace=wrap;html=1;aspect=fixed;fillColor=#000000;" parent="TDGXhuY3JXJe945Ci3HX-1" vertex="1">
                    <mxGeometry x="480" y="450" width="310" height="310" as="geometry"/>
                </mxCell>
                <mxCell id="TDGXhuY3JXJe945Ci3HX-19" value="Text" style="text;html=1;strokeColor=none;fillColor=none;align=center;verticalAlign=middle;whiteSpace=wrap;rounded=0;" parent="TDGXhuY3JXJe945Ci3HX-1" vertex="1">
                    <mxGeometry x="220" y="610" width="40" height="20" as="geometry"/>
                </mxCell>
                <mxCell id="TDGXhuY3JXJe945Ci3HX-20" value="&lt;font color=&quot;#000000&quot; style=&quot;font-size: 37px&quot;&gt;Previous letters:&lt;/font&gt;" style="text;html=1;strokeColor=none;fillColor=none;align=center;verticalAlign=middle;whiteSpace=wrap;rounded=0;" parent="TDGXhuY3JXJe945Ci3HX-1" vertex="1">
                    <mxGeometry x="15" y="480" width="340" height="130" as="geometry"/>
                </mxCell>
            </root>
        </mxGraphModel>
    </diagram>
    <diagram id="zFS9j1hWBnjZZn_1MQjV" name="Page-3">
        <mxGraphModel dx="663" dy="548" grid="1" gridSize="10" guides="1" tooltips="1" connect="1" arrows="1" fold="1" page="1" pageScale="1" pageWidth="827" pageHeight="1169" math="0" shadow="0">
            <root>
                <mxCell id="YRBU1PbxzvxD-fAkI2Ut-0"/>
                <mxCell id="YRBU1PbxzvxD-fAkI2Ut-1" parent="YRBU1PbxzvxD-fAkI2Ut-0"/>
                <mxCell id="SohSlxMUCLfMthBGPmtK-0" style="edgeStyle=none;html=1;exitX=0.5;exitY=1;exitDx=0;exitDy=0;entryX=0.5;entryY=0;entryDx=0;entryDy=0;" parent="YRBU1PbxzvxD-fAkI2Ut-1" source="YRBU1PbxzvxD-fAkI2Ut-2" target="YRBU1PbxzvxD-fAkI2Ut-3" edge="1">
                    <mxGeometry relative="1" as="geometry"/>
                </mxCell>
                <mxCell id="YRBU1PbxzvxD-fAkI2Ut-2" value="User clicks a theme, get request by theme sent" style="rounded=0;whiteSpace=wrap;html=1;" parent="YRBU1PbxzvxD-fAkI2Ut-1" vertex="1">
                    <mxGeometry x="340" y="80" width="120" height="60" as="geometry"/>
                </mxCell>
                <mxCell id="SohSlxMUCLfMthBGPmtK-1" style="edgeStyle=none;html=1;exitX=0.5;exitY=1;exitDx=0;exitDy=0;entryX=0.5;entryY=0;entryDx=0;entryDy=0;" parent="YRBU1PbxzvxD-fAkI2Ut-1" source="YRBU1PbxzvxD-fAkI2Ut-3" target="YRBU1PbxzvxD-fAkI2Ut-4" edge="1">
                    <mxGeometry relative="1" as="geometry"/>
                </mxCell>
                <mxCell id="YRBU1PbxzvxD-fAkI2Ut-3" value="themes disappear, replaced by game screen" style="rounded=0;whiteSpace=wrap;html=1;" parent="YRBU1PbxzvxD-fAkI2Ut-1" vertex="1">
                    <mxGeometry x="340" y="190" width="120" height="60" as="geometry"/>
                </mxCell>
                <mxCell id="SohSlxMUCLfMthBGPmtK-2" style="edgeStyle=none;html=1;exitX=0.5;exitY=1;exitDx=0;exitDy=0;entryX=0.5;entryY=0;entryDx=0;entryDy=0;" parent="YRBU1PbxzvxD-fAkI2Ut-1" source="YRBU1PbxzvxD-fAkI2Ut-4" target="YRBU1PbxzvxD-fAkI2Ut-5" edge="1">
                    <mxGeometry relative="1" as="geometry"/>
                </mxCell>
                <mxCell id="YRBU1PbxzvxD-fAkI2Ut-4" value="Word is generated and displayed by '_'." style="rounded=0;whiteSpace=wrap;html=1;" parent="YRBU1PbxzvxD-fAkI2Ut-1" vertex="1">
                    <mxGeometry x="340" y="290" width="120" height="60" as="geometry"/>
                </mxCell>
                <mxCell id="YRBU1PbxzvxD-fAkI2Ut-8" style="edgeStyle=none;html=1;exitX=0.5;exitY=1;exitDx=0;exitDy=0;entryX=0.5;entryY=0;entryDx=0;entryDy=0;" parent="YRBU1PbxzvxD-fAkI2Ut-1" source="YRBU1PbxzvxD-fAkI2Ut-5" target="YRBU1PbxzvxD-fAkI2Ut-6" edge="1">
                    <mxGeometry relative="1" as="geometry"/>
                </mxCell>
                <mxCell id="YRBU1PbxzvxD-fAkI2Ut-9" style="edgeStyle=none;html=1;exitX=0.5;exitY=1;exitDx=0;exitDy=0;entryX=0.573;entryY=0.031;entryDx=0;entryDy=0;entryPerimeter=0;" parent="YRBU1PbxzvxD-fAkI2Ut-1" source="YRBU1PbxzvxD-fAkI2Ut-5" target="YRBU1PbxzvxD-fAkI2Ut-7" edge="1">
                    <mxGeometry relative="1" as="geometry"/>
                </mxCell>
                <mxCell id="YRBU1PbxzvxD-fAkI2Ut-5" value="User enters single characters&amp;nbsp;" style="rounded=0;whiteSpace=wrap;html=1;" parent="YRBU1PbxzvxD-fAkI2Ut-1" vertex="1">
                    <mxGeometry x="340" y="390" width="120" height="60" as="geometry"/>
                </mxCell>
                <mxCell id="YRBU1PbxzvxD-fAkI2Ut-25" style="edgeStyle=none;html=1;exitX=0.5;exitY=1;exitDx=0;exitDy=0;entryX=0.5;entryY=0;entryDx=0;entryDy=0;" parent="YRBU1PbxzvxD-fAkI2Ut-1" source="YRBU1PbxzvxD-fAkI2Ut-6" target="YRBU1PbxzvxD-fAkI2Ut-13" edge="1">
                    <mxGeometry relative="1" as="geometry"/>
                </mxCell>
                <mxCell id="YRBU1PbxzvxD-fAkI2Ut-6" value="Guess is correct" style="rounded=0;whiteSpace=wrap;html=1;" parent="YRBU1PbxzvxD-fAkI2Ut-1" vertex="1">
                    <mxGeometry x="220" y="500" width="120" height="60" as="geometry"/>
                </mxCell>
                <mxCell id="YRBU1PbxzvxD-fAkI2Ut-24" style="edgeStyle=none;html=1;exitX=0.5;exitY=1;exitDx=0;exitDy=0;entryX=0.5;entryY=0;entryDx=0;entryDy=0;" parent="YRBU1PbxzvxD-fAkI2Ut-1" source="YRBU1PbxzvxD-fAkI2Ut-7" target="YRBU1PbxzvxD-fAkI2Ut-12" edge="1">
                    <mxGeometry relative="1" as="geometry"/>
                </mxCell>
                <mxCell id="YRBU1PbxzvxD-fAkI2Ut-7" value="Guess is incorrect" style="rounded=0;whiteSpace=wrap;html=1;" parent="YRBU1PbxzvxD-fAkI2Ut-1" vertex="1">
                    <mxGeometry x="460" y="500" width="120" height="60" as="geometry"/>
                </mxCell>
                <mxCell id="YRBU1PbxzvxD-fAkI2Ut-29" style="edgeStyle=none;html=1;exitX=0.5;exitY=1;exitDx=0;exitDy=0;entryX=0.5;entryY=0;entryDx=0;entryDy=0;" parent="YRBU1PbxzvxD-fAkI2Ut-1" source="YRBU1PbxzvxD-fAkI2Ut-12" target="YRBU1PbxzvxD-fAkI2Ut-17" edge="1">
                    <mxGeometry relative="1" as="geometry"/>
                </mxCell>
                <mxCell id="YRBU1PbxzvxD-fAkI2Ut-12" value="User loses one life" style="rounded=0;whiteSpace=wrap;html=1;" parent="YRBU1PbxzvxD-fAkI2Ut-1" vertex="1">
                    <mxGeometry x="460" y="590" width="120" height="60" as="geometry"/>
                </mxCell>
                <mxCell id="YRBU1PbxzvxD-fAkI2Ut-28" style="edgeStyle=none;html=1;exitX=0.5;exitY=1;exitDx=0;exitDy=0;entryX=0.5;entryY=0;entryDx=0;entryDy=0;" parent="YRBU1PbxzvxD-fAkI2Ut-1" source="YRBU1PbxzvxD-fAkI2Ut-13" target="YRBU1PbxzvxD-fAkI2Ut-15" edge="1">
                    <mxGeometry relative="1" as="geometry"/>
                </mxCell>
                <mxCell id="YRBU1PbxzvxD-fAkI2Ut-13" value="Letter aded to word" style="rounded=0;whiteSpace=wrap;html=1;" parent="YRBU1PbxzvxD-fAkI2Ut-1" vertex="1">
                    <mxGeometry x="220" y="590" width="120" height="60" as="geometry"/>
                </mxCell>
                <mxCell id="YRBU1PbxzvxD-fAkI2Ut-30" style="edgeStyle=none;html=1;exitX=0.5;exitY=1;exitDx=0;exitDy=0;entryX=1;entryY=0;entryDx=0;entryDy=0;" parent="YRBU1PbxzvxD-fAkI2Ut-1" source="YRBU1PbxzvxD-fAkI2Ut-15" target="YRBU1PbxzvxD-fAkI2Ut-22" edge="1">
                    <mxGeometry relative="1" as="geometry"/>
                </mxCell>
                <mxCell id="YRBU1PbxzvxD-fAkI2Ut-31" style="edgeStyle=none;html=1;exitX=0.5;exitY=1;exitDx=0;exitDy=0;entryX=0;entryY=0;entryDx=0;entryDy=0;" parent="YRBU1PbxzvxD-fAkI2Ut-1" source="YRBU1PbxzvxD-fAkI2Ut-15" target="YRBU1PbxzvxD-fAkI2Ut-18" edge="1">
                    <mxGeometry relative="1" as="geometry"/>
                </mxCell>
                <mxCell id="YRBU1PbxzvxD-fAkI2Ut-15" value="Word guessed?" style="rhombus;whiteSpace=wrap;html=1;" parent="YRBU1PbxzvxD-fAkI2Ut-1" vertex="1">
                    <mxGeometry x="230" y="680" width="100" height="80" as="geometry"/>
                </mxCell>
                <mxCell id="YRBU1PbxzvxD-fAkI2Ut-32" style="edgeStyle=none;html=1;exitX=0.5;exitY=1;exitDx=0;exitDy=0;entryX=1;entryY=0;entryDx=0;entryDy=0;" parent="YRBU1PbxzvxD-fAkI2Ut-1" source="YRBU1PbxzvxD-fAkI2Ut-17" target="YRBU1PbxzvxD-fAkI2Ut-19" edge="1">
                    <mxGeometry relative="1" as="geometry"/>
                </mxCell>
                <mxCell id="YRBU1PbxzvxD-fAkI2Ut-35" style="edgeStyle=none;html=1;exitX=0.5;exitY=1;exitDx=0;exitDy=0;" parent="YRBU1PbxzvxD-fAkI2Ut-1" source="YRBU1PbxzvxD-fAkI2Ut-17" target="YRBU1PbxzvxD-fAkI2Ut-23" edge="1">
                    <mxGeometry relative="1" as="geometry"/>
                </mxCell>
                <mxCell id="YRBU1PbxzvxD-fAkI2Ut-17" value="All lives lost?&lt;br&gt;(5)" style="rhombus;whiteSpace=wrap;html=1;" parent="YRBU1PbxzvxD-fAkI2Ut-1" vertex="1">
                    <mxGeometry x="470" y="680" width="100" height="80" as="geometry"/>
                </mxCell>
                <mxCell id="YRBU1PbxzvxD-fAkI2Ut-46" style="edgeStyle=none;html=1;exitX=0.5;exitY=1;exitDx=0;exitDy=0;entryX=0.5;entryY=0;entryDx=0;entryDy=0;" parent="YRBU1PbxzvxD-fAkI2Ut-1" source="YRBU1PbxzvxD-fAkI2Ut-18" target="YRBU1PbxzvxD-fAkI2Ut-43" edge="1">
                    <mxGeometry relative="1" as="geometry"/>
                </mxCell>
                <mxCell id="YRBU1PbxzvxD-fAkI2Ut-18" value="Yes" style="ellipse;whiteSpace=wrap;html=1;" parent="YRBU1PbxzvxD-fAkI2Ut-1" vertex="1">
                    <mxGeometry x="290" y="770" width="70" height="50" as="geometry"/>
                </mxCell>
                <mxCell id="YRBU1PbxzvxD-fAkI2Ut-45" style="edgeStyle=none;html=1;exitX=0.5;exitY=1;exitDx=0;exitDy=0;entryX=0.5;entryY=0;entryDx=0;entryDy=0;" parent="YRBU1PbxzvxD-fAkI2Ut-1" source="YRBU1PbxzvxD-fAkI2Ut-19" target="YRBU1PbxzvxD-fAkI2Ut-44" edge="1">
                    <mxGeometry relative="1" as="geometry"/>
                </mxCell>
                <mxCell id="YRBU1PbxzvxD-fAkI2Ut-19" value="Yes" style="ellipse;whiteSpace=wrap;html=1;" parent="YRBU1PbxzvxD-fAkI2Ut-1" vertex="1">
                    <mxGeometry x="440" y="770" width="70" height="50" as="geometry"/>
                </mxCell>
                <mxCell id="YRBU1PbxzvxD-fAkI2Ut-41" style="edgeStyle=none;html=1;exitX=0;exitY=0.5;exitDx=0;exitDy=0;entryX=0.5;entryY=1;entryDx=0;entryDy=0;" parent="YRBU1PbxzvxD-fAkI2Ut-1" source="YRBU1PbxzvxD-fAkI2Ut-22" target="YRBU1PbxzvxD-fAkI2Ut-38" edge="1">
                    <mxGeometry relative="1" as="geometry"/>
                </mxCell>
                <mxCell id="YRBU1PbxzvxD-fAkI2Ut-22" value="No" style="ellipse;whiteSpace=wrap;html=1;" parent="YRBU1PbxzvxD-fAkI2Ut-1" vertex="1">
                    <mxGeometry x="200" y="770" width="70" height="50" as="geometry"/>
                </mxCell>
                <mxCell id="YRBU1PbxzvxD-fAkI2Ut-39" style="edgeStyle=none;html=1;exitX=1;exitY=0.5;exitDx=0;exitDy=0;entryX=0.5;entryY=1;entryDx=0;entryDy=0;" parent="YRBU1PbxzvxD-fAkI2Ut-1" source="YRBU1PbxzvxD-fAkI2Ut-23" target="YRBU1PbxzvxD-fAkI2Ut-37" edge="1">
                    <mxGeometry relative="1" as="geometry"/>
                </mxCell>
                <mxCell id="YRBU1PbxzvxD-fAkI2Ut-23" value="No" style="ellipse;whiteSpace=wrap;html=1;" parent="YRBU1PbxzvxD-fAkI2Ut-1" vertex="1">
                    <mxGeometry x="530" y="770" width="70" height="50" as="geometry"/>
                </mxCell>
                <mxCell id="YRBU1PbxzvxD-fAkI2Ut-40" style="edgeStyle=none;html=1;exitX=0;exitY=0.5;exitDx=0;exitDy=0;entryX=1;entryY=0.5;entryDx=0;entryDy=0;" parent="YRBU1PbxzvxD-fAkI2Ut-1" source="YRBU1PbxzvxD-fAkI2Ut-37" target="YRBU1PbxzvxD-fAkI2Ut-5" edge="1">
                    <mxGeometry relative="1" as="geometry"/>
                </mxCell>
                <mxCell id="YRBU1PbxzvxD-fAkI2Ut-37" value="Repeat" style="rhombus;whiteSpace=wrap;html=1;" parent="YRBU1PbxzvxD-fAkI2Ut-1" vertex="1">
                    <mxGeometry x="700" y="380" width="80" height="80" as="geometry"/>
                </mxCell>
                <mxCell id="YRBU1PbxzvxD-fAkI2Ut-42" style="edgeStyle=none;html=1;exitX=1;exitY=0.5;exitDx=0;exitDy=0;entryX=0;entryY=0.5;entryDx=0;entryDy=0;" parent="YRBU1PbxzvxD-fAkI2Ut-1" source="YRBU1PbxzvxD-fAkI2Ut-38" target="YRBU1PbxzvxD-fAkI2Ut-5" edge="1">
                    <mxGeometry relative="1" as="geometry"/>
                </mxCell>
                <mxCell id="YRBU1PbxzvxD-fAkI2Ut-38" value="Repeat" style="rhombus;whiteSpace=wrap;html=1;" parent="YRBU1PbxzvxD-fAkI2Ut-1" vertex="1">
                    <mxGeometry x="30" y="380" width="80" height="80" as="geometry"/>
                </mxCell>
                <mxCell id="YRBU1PbxzvxD-fAkI2Ut-43" value="GAME OVER (WIN)" style="rhombus;whiteSpace=wrap;html=1;" parent="YRBU1PbxzvxD-fAkI2Ut-1" vertex="1">
                    <mxGeometry x="205" y="860" width="150" height="100" as="geometry"/>
                </mxCell>
                <mxCell id="YRBU1PbxzvxD-fAkI2Ut-44" value="GAME OVER (LOSE)" style="rhombus;whiteSpace=wrap;html=1;" parent="YRBU1PbxzvxD-fAkI2Ut-1" vertex="1">
                    <mxGeometry x="445" y="860" width="150" height="100" as="geometry"/>
                </mxCell>
            </root>
        </mxGraphModel>
    </diagram>
</mxfile>